<?xml version="1.0" encoding="utf-8"?>
<!-- Generator: Adobe Illustrator 27.0.1, SVG Export Plug-In . SVG Version: 6.00 Build 0)  -->
<svg version="1.1" id="Layer_1" xmlns="http://www.w3.org/2000/svg" xmlns:xlink="http://www.w3.org/1999/xlink" x="0px" y="0px"
	 viewBox="0 0 192 46" style="enable-background:new 0 0 192 46;" xml:space="preserve">
<style type="text/css">
	.st0{fill:#FFFFFF;}
	.st1{fill:#2A289D;}
</style>
<rect class="st0" width="192" height="46"/>
<path id="Path" class="st1" d="M29.9,12.8C28.4,6.9,11.7,6,1.1,11.4c-0.3,0.2-0.8,0.5-0.9,1l-0.1,0.9c0,0.3,0.3,0.3,0.4,0.2
	c1.4-0.8,2.9-1.6,4.4-2c6.7-2,15.2-2.1,16.7,2.3c1,3.1-3.2,5.6-5.6,6.7c-0.9,0.4-1.2,0.8-1.3,1.3c0,0.4,0.1,1,0.6,1.8
	c3.4,5,13.4,12.3,23.3,14.8c0.4,0.1,0.6,0.1,0.8,0c0.1,0,0.2-0.1,0-0.2c-6.6-3.4-12.8-9.2-15.9-13.7c-0.7-1-0.9-1.7-0.9-2.2
	c0.1-0.5,0.5-0.9,1.4-1.3C27.4,19.4,31,16.9,29.9,12.8 M1.4,31.7h9v-9h-9C1.4,22.7,1.4,31.7,1.4,31.7z M185.4,22l-6.4-2.1
	c-2.6-0.9-3.4-1.3-3.4-2.3c0-0.8,0.5-1.5,3.8-1.5h9.6c0.5,0,0.8-0.1,1-0.6l1.1-2.2h-14.3c-6.5,0-8.9,2-8.9,4.8c0,1.6,0.9,3.8,7,5.8
	l6.4,2.1c2.6,0.9,3.4,1.2,3.4,2.2c0,0.8-0.5,1.5-3.8,1.5h-13l-10.1-16.5H154c-3,0-4.5,0.8-5.9,3.1l-9.9,16.1h6.7L153,18
	c0.2-0.3,0.4-0.3,0.5-0.3l6.8,12h-7.4c-0.5,0-0.8,0.1-1,0.6l-1.1,2.2h18.8l0,0l0,0h13.9c6.5,0,8.9-2,8.9-4.8
	C192.4,26.2,191.5,24,185.4,22 M127.6,26.1c2.6,0.9,3.4,1.2,3.4,2.2c0,0.9-0.5,1.5-3.8,1.5h-11.3c-0.5,0-0.8,0.1-1,0.6l-1.1,2.2h16
	c6.5,0,8.9-2,8.9-4.8c0-1.6-0.9-3.8-7-5.8l-6.4-2.1c-2.6-0.9-3.4-1.3-3.4-2.3c0-0.8,0.5-1.5,3.8-1.5h9.6c0.5,0,0.8-0.1,1-0.6
	l1.1-2.2h-14.3c-6.5,0-8.9,2-8.9,4.8c0,1.6,0.9,3.8,7,5.8L127.6,26.1 M99.5,16.1h9.8c0.5,0,0.8-0.1,1.1-0.6l1.1-2.2h-14
	c-6.2,0-9.2,2.3-9.2,6.9v5.3c0,4.9,3.1,7,9.2,7h12.1c0.5,0,0.8-0.1,1-0.6l1.1-2.2H99.5c-3.2,0-4.4-1.1-4.4-3.3V24h12.8
	c0.5,0,0.8-0.1,1-0.6l1.1-2.2H95v-1.6C95.1,17.8,95.5,16.1,99.5,16.1 M43.9,16.1h9.8c0.5,0,0.8-0.1,1-0.6l1.1-2.2h-14
	c-6.2,0-9.2,2.3-9.2,6.9v5.3c0,4.9,3.1,7,9.3,7H54c0.5,0,0.8-0.1,1-0.6l1.1-2.2H43.9c-3.2,0-4.4-1.1-4.4-3.3V24h12.8
	c0.5,0,0.8-0.1,1-0.6l1.1-2.2h-15v-1.6C39.6,17.8,40,16.1,43.9,16.1 M63.1,13.4c4.1,0,5,0.6,6.5,2.4l10,11.7
	c0.1,0.2,0.2,0.2,0.4,0.2V13.4h3.9v19.2h-4.1c-2.7,0-3.9-0.2-5.5-2.2L63.9,18.3c-0.1-0.2-0.2-0.2-0.4-0.2v14.5h-3.9V13.4H63.1"/>
</svg>
